<svg id="Capa_1" enable-background="new 0 0 512.014 512.014" height="512" viewBox="0 0 512.014 512.014" width="512" xmlns="http://www.w3.org/2000/svg"><g><path d="m301.246 312.789-174.328 99.552c-6.366 3.635-14.474 1.422-18.109-4.944l-99.553-174.328c-3.635-6.366-1.422-14.474 4.944-18.109l174.328-99.552c6.366-3.635 14.474-1.422 18.109 4.944l99.553 174.328c3.635 6.366 1.422 14.474-4.944 18.109z" fill="#dd636e"/><path d="m206.638 120.352c-3.635-6.366-11.743-8.58-18.109-4.944l-67.095 38.316v167.492c0 16.459 13.39 29.849 29.849 29.849h82.94l67.024-38.275c6.366-3.635 8.58-11.743 4.944-18.109z" fill="#da4a54"/><path d="m210.768 312.789 174.328 99.552c6.366 3.635 14.474 1.422 18.109-4.944l99.552-174.328c3.635-6.366 1.422-14.474-4.944-18.109l-174.328-99.552c-6.366-3.635-14.474-1.422-18.109 4.944l-99.552 174.328c-3.636 6.366-1.422 14.474 4.944 18.109z" fill="#95d6a4"/><path d="m390.581 153.723-67.095-38.316c-6.366-3.635-14.474-1.422-18.109 4.944l-99.553 174.329c-3.635 6.366-1.422 14.474 4.944 18.109l67.024 38.275h82.939c16.459 0 29.85-13.39 29.85-29.849z" fill="#78c2a4"/><path d="m360.731 335.064h-209.449c-7.649 0-13.849-6.2-13.849-13.849v-209.449c0-7.649 6.2-13.849 13.849-13.849h209.449c7.649 0 13.849 6.2 13.849 13.849v209.449c0 7.649-6.2 13.849-13.849 13.849z" fill="#ffc250"/><path d="m360.731 97.917h-20.693c7.649 0 13.849 6.201 13.849 13.849v209.449c0 7.649-6.2 13.849-13.849 13.849h20.693c7.649 0 13.849-6.2 13.849-13.849v-209.449c.001-7.649-6.2-13.849-13.849-13.849z" fill="#ebb044"/><path d="m511.271 221.015c-1.462-5.354-4.92-9.816-9.738-12.567l-119.452-68.215v-28.466c0-11.771-9.577-21.349-21.35-21.349h-91.663c-4.143 0-7.5 3.357-7.5 7.5s3.357 7.5 7.5 7.5h91.663c3.501 0 6.35 2.848 6.35 6.349v209.449c0 3.501-2.849 6.35-6.35 6.35h-209.449c-3.501 0-6.349-2.849-6.349-6.35v-209.45c0-3.501 2.848-6.349 6.349-6.349h87.799c4.143 0 7.5-3.357 7.5-7.5s-3.357-7.5-7.5-7.5h-87.799c-11.771 0-21.349 9.577-21.349 21.349v28.466l-119.451 68.215c-4.818 2.751-8.277 7.214-9.739 12.567s-.751 10.955 2.001 15.774l36.33 63.618c1.384 2.423 3.915 3.781 6.52 3.781 1.261 0 2.539-.318 3.712-.988 3.598-2.054 4.849-6.635 2.794-10.232l-36.33-63.618c-.765-1.339-.962-2.896-.556-4.384s1.367-2.729 2.707-3.493l112.013-63.967v163.709c0 11.772 9.577 21.35 21.349 21.35h82.7l-110.784 63.264c-2.765 1.581-6.298.613-7.877-2.149l-48.283-84.551c-2.054-3.597-6.634-4.847-10.231-2.794-3.598 2.054-4.849 6.635-2.794 10.231l48.283 84.552c3.83 6.706 10.854 10.468 18.074 10.468 3.49 0 7.026-.88 10.267-2.731l125.37-71.594 125.369 71.594c10.03 5.726 22.683 2.173 28.342-7.736l65.742-115.122c2.055-3.598.804-8.179-2.793-10.232-3.598-2.053-8.179-.802-10.232 2.793l-65.742 115.123c-1.576 2.76-5.096 3.739-7.877 2.149l-110.782-63.264h82.698c11.772 0 21.35-9.577 21.35-21.35v-163.709l112.014 63.967c1.339.765 2.3 2.006 2.706 3.493.406 1.488.209 3.045-.556 4.384l-18.927 33.143c-2.055 3.598-.804 8.179 2.793 10.232 1.174.67 2.452.988 3.713.988 2.604 0 5.136-1.358 6.52-3.781l18.927-33.143c2.749-4.819 3.46-10.421 1.998-15.774z"/></g></svg>